# xmcd
#
# Track frame offsets: 
#        150
#        21653
#        45052
#        67953
#        91857
#        122549
#        141118
#        162777
#        184498
#        204024
#        225168
#        247972
#
# Disc length: 3546 seconds
#
# Revision: 7
# Processed by: cddbd v1.5.2PL0 Copyright (c) Steve Scherf et al.
# Submitted via: ExactAudioCopy v1.1
#
DISCID=8b0dd80c
DTITLE=Chris Rea - CD05. Texas Blues
DYEAR=2005
DGENRE=Blues
TTITLE0=Lone Rider
TTITLE1=Texas Blue
TTITLE2=No Wheels Blues
TTITLE3=Lone Star Boogie
TTITLE4=Blind Willie
TTITLE5=The American Way
TTITLE6=Angellina
TTITLE7=Truck Stop
TTITLE8=Weekend Down Mexico
TTITLE9=Texas Line Boogie
TTITLE10=Too Big City
TTITLE11=Houston Angel
EXTD=YEAR: 2005
EXTT0=
EXTT1=
EXTT2=
EXTT3=
EXTT4=
EXTT5=
EXTT6=
EXTT7=
EXTT8=
EXTT9=
EXTT10=
EXTT11=
PLAYORDER=
